<?xml version="1.0" encoding="UTF-8" standalone="no"?>
<!-- Created with Inkscape (http://www.inkscape.org/) -->

<svg
   version="1.1"
   id="svg385"
   width="330"
   height="316"
   viewBox="0 0 330 316"
   sodipodi:docname="Screenshot from 2023-01-11 14-21-15.png"
   xmlns:inkscape="http://www.inkscape.org/namespaces/inkscape"
   xmlns:sodipodi="http://sodipodi.sourceforge.net/DTD/sodipodi-0.dtd"
   xmlns="http://www.w3.org/2000/svg"
   xmlns:svg="http://www.w3.org/2000/svg">
  <defs
     id="defs389" />
  <sodipodi:namedview
     id="namedview387"
     pagecolor="#505050"
     bordercolor="#eeeeee"
     borderopacity="1"
     inkscape:showpageshadow="0"
     inkscape:pageopacity="0"
     inkscape:pagecheckerboard="0"
     inkscape:deskcolor="#505050"
     showgrid="false" />
  <g
     inkscape:groupmode="layer"
     inkscape:label="Image"
     id="g391">
    <path
       style="fill:#000000"
       d="M 161.5,293.75432 C 106.69817,223.21391 73.041452,167.41187 64.044995,132.17623 59.238437,113.3508 62.836864,88.526921 73.202912,69 86.847293,43.297561 109.34546,25.477364 137.82457,17.814922 c 9.80177,-2.637214 30.32111,-3.549497 41.02391,-1.82391 37.15284,5.990062 68.55529,33.168073 80.31318,69.508988 3.01501,9.318724 5.10303,24.97956 4.46645,33.5 -1.95919,26.22328 -21.42573,67.56414 -58.38276,123.9868 -9.40795,14.3632 -33.11059,48.02099 -37.47512,53.21474 L 165.5,298.90309 Z m 20.09004,-99.74442 c 9.76484,-2.45678 24.02415,-9.42494 31.63179,-15.45764 11.62132,-9.21546 21.93195,-24.63619 26.77979,-40.05226 3.11473,-9.9048 3.8258,-27.31045 1.57044,-38.44112 C 236.58882,75.465575 220.93024,54.991948 198.66313,43.955368 151.47998,20.569279 96.906734,46.274449 83.923919,98 c -2.031693,8.09458 -1.766929,28.85975 0.471734,36.99764 7.004591,25.4628 23.358527,44.63127 46.680597,54.71437 10.37251,4.48447 18.44389,6.06924 31.51379,6.18758 8.03194,0.0727 13.27122,-0.44836 19,-1.88969 z M 140.5,163.10006 c -11.22055,-5.20636 -18.54676,-18.51517 -18.45841,-33.53156 0.0717,-12.19314 5.6511,-23.00555 14.21572,-27.54907 2.54982,-1.35268 4.8373,-2.247919 5.08328,-1.98942 0.24598,0.25849 -0.16582,3.39499 -0.91511,6.96999 -1.02778,4.90372 -1.11488,8.06572 -0.35467,12.87556 1.28081,8.10361 2.99423,11.37525 7.28251,13.9054 4.54614,2.68228 6.01731,7.30986 5.43641,17.10034 -0.53174,8.96206 -2.7551,14.12942 -6.06541,14.09674 -1.22338,-0.0121 -4.02432,-0.85717 -6.22432,-1.87798 z m 13.86675,0.38659 c 3.20116,-8.34209 3.34873,-22.30314 0.29787,-28.18047 -0.91183,-1.7566 -2.89689,-3.7816 -4.41125,-4.5 -4.07526,-1.93328 -6.43993,-7.6277 -6.47149,-15.58416 -0.0297,-7.48024 1.67505,-15.07639 3.54441,-15.793737 0.67181,-0.257797 3.30245,0.157558 5.84586,0.923017 19.58011,5.89274 28.42846,35.86675 15.97706,54.12266 -2.83687,4.15933 -8.95962,8.88038 -13.05048,10.06279 -2.00565,0.5797 -2.291,0.40669 -1.73198,-1.0501 z m 22.27927,-4.49618 c -3.7119,-2.35402 -4.66467,-3.46123 -4.11098,-4.77733 4.28154,-10.17698 4.76502,-12.16461 4.79515,-19.71314 0.0176,-4.4 -0.54812,-9.72893 -1.25706,-11.84206 -1.36958,-4.08224 -0.9527,-5.01579 2.73849,-6.13249 2.2213,-0.67202 2.27991,-0.54941 1.5,3.1376 -1.84912,8.7417 0.48439,20.33695 4.09274,20.33695 3.64832,0 4.62592,11.99167 1.50794,18.4971 -1.92453,4.0154 -3.57411,4.10323 -9.26628,0.49337 z m 11.73659,1.45485 c 1.71446,-4.46781 2.54497,-10.69457 1.97806,-14.8306 -0.5819,-4.24539 -3.301,-8.61472 -5.36108,-8.61472 -1.55439,0 -3.24027,-8.22742 -2.61726,-12.77276 0.32367,-2.36139 1.15755,-5.36517 1.85308,-6.67506 1.20815,-2.27532 1.437,-2.32201 5.12733,-1.04598 8.57017,2.96335 13.93267,11.73395 14.05883,22.9938 0.12115,10.81292 -5.14469,19.50814 -13.32284,21.99933 -2.03047,0.61852 -2.29547,0.45576 -1.71612,-1.05401 z M 153,91.290565 c -2.52333,-0.927813 -5.00117,-3.513624 -4.9786,-5.195553 0.0118,-0.877256 2.05856,-4.74005 4.54843,-8.583984 3.28435,-5.070481 4.36764,-7.624021 3.94639,-9.302422 -0.53539,-2.133152 -0.40278,-2.221415 1.70157,-1.132528 3.27668,1.695504 5.78221,4.045762 5.78221,5.423873 0,0.654487 -1.86722,4.072243 -4.14938,7.595013 -2.28215,3.52277 -4.19465,7.64151 -4.25,9.152756 -0.10528,2.874904 -0.17939,2.933117 -2.60062,2.042845 z m 13.45455,-4.74511 c -1.35,-1.35 -2.45455,-2.836899 -2.45455,-3.30422 0,-0.46732 1.422,-3.075275 3.15999,-5.795454 1.738,-2.72018 3.42875,-6.22148 3.75723,-7.780667 l 0.59723,-2.834886 2.74278,2.157466 c 3.50209,2.754747 3.45297,4.828035 -0.25723,10.857882 -1.65,2.681592 -3,5.838352 -3,7.015023 0,2.811652 -1.52434,2.705967 -4.54545,-0.315144 z"
       id="path395" />
  </g>
</svg>
