<?xml version="1.0" encoding="UTF-8" standalone="no"?>
<!-- Created with Inkscape (http://www.inkscape.org/) -->

<svg
   version="1.1"
   id="svg78"
   width="2424"
   height="688"
   viewBox="0 0 2424 688"
   sodipodi:docname="Logo-Navy.svg"
   inkscape:version="1.2.2 (b0a8486541, 2022-12-01)"
   xmlns:inkscape="http://www.inkscape.org/namespaces/inkscape"
   xmlns:sodipodi="http://sodipodi.sourceforge.net/DTD/sodipodi-0.dtd"
   xmlns="http://www.w3.org/2000/svg"
   xmlns:svg="http://www.w3.org/2000/svg">
  <defs
     id="defs82" />
  <sodipodi:namedview
     id="namedview80"
     pagecolor="#505050"
     bordercolor="#eeeeee"
     borderopacity="1"
     inkscape:showpageshadow="0"
     inkscape:pageopacity="0"
     inkscape:pagecheckerboard="0"
     inkscape:deskcolor="#505050"
     showgrid="false"
     inkscape:zoom="0.55981848"
     inkscape:cx="1295.9558"
     inkscape:cy="344.75461"
     inkscape:window-width="1920"
     inkscape:window-height="1011"
     inkscape:window-x="0"
     inkscape:window-y="0"
     inkscape:window-maximized="1"
     inkscape:current-layer="g84" />
  <g
     inkscape:groupmode="layer"
     inkscape:label="Image"
     id="g84">
    <path
       style="fill:#201e50;stroke-width:1.33333;fill-opacity:1"
       d="m 1223.664,638.49192 c -2.2589,-0.85115 -4.0191,-2.74901 -4.5791,-4.93727 -0.6095,-2.38165 18.3876,-100.13198 57.5684,-296.22132 32.1629,-160.96666 59.0103,-294.647874 59.6608,-297.069354 1.4992,-5.580461 7.8232,-9.585641 15.1459,-9.592325 6.4607,-0.0059 9.8733,3.027193 9.8733,8.775265 0,5.181495 -116.8121,589.087804 -118.4674,592.180844 -3.4516,6.44943 -12.0989,9.54057 -19.2019,6.86416 z M 371.59145,538.67029 c -56.29693,-5.39828 -98.59957,-30.46701 -129.11748,-76.5156 -35.55334,-53.64657 -40.78761,-121.62174 -15.0573,-195.543 13.50841,-38.80869 34.99121,-72.60533 67.23412,-105.77241 52.36685,-53.86785 108.70089,-82.284275 173.50001,-87.518127 46.83632,-3.782989 81.83061,9.335924 113.59795,42.586417 5.65354,5.9175 10.5448,10.7591 10.86945,10.7591 0.32465,0 10.55076,-11.23975 22.72468,-24.97722 24.03535,-27.122321 28.19297,-30.745257 32.5852,-28.394606 1.50623,0.806105 2.73873,2.494536 2.73891,3.752068 1.7e-4,1.257532 -7.57138,40.386418 -16.82566,86.953088 -15.43009,77.64279 -17.10233,84.92144 -20.15736,87.73779 -2.4568,2.26488 -4.59474,2.96494 -8.14369,2.66666 -6.58681,-0.5536 -8.15288,-4.18306 -8.22893,-19.07112 -0.0968,-18.95692 -3.51888,-51.08582 -6.57895,-61.76849 -11.49704,-40.1362 -40.70175,-70.35152 -76.23089,-78.86884 -21.39591,-5.129185 -51.18192,-3.010951 -76.49567,5.44 -83.19871,27.77572 -137.00899,99.25268 -157.99275,209.864 -21.38308,112.71617 8.26879,181.41093 88.66091,205.40159 15.76019,4.70317 42.01673,5.92692 60.01337,2.79708 33.5482,-5.83447 70.5751,-25.67984 97.21207,-52.10295 21.82013,-21.64493 35.47299,-44.67971 48.26349,-81.42905 5.59198,-16.06668 7.56963,-19.33334 11.70455,-19.33334 7.87596,0 7.72231,7.29676 -0.68763,32.65339 -8.91006,26.86459 -22.33277,48.99645 -43.01869,70.93084 -47.61035,50.48379 -109.13501,75.64368 -170.56971,69.75273 z m 434.66667,0 c -56.29693,-5.39828 -98.59957,-30.46701 -129.11748,-76.5156 -35.55335,-53.64657 -40.78761,-121.62174 -15.05731,-195.543 13.50842,-38.80869 34.99122,-72.60533 67.23412,-105.77241 52.36686,-53.86785 108.7009,-82.284275 173.50002,-87.518127 46.83632,-3.782989 81.83061,9.335924 113.59793,42.586417 5.6536,5.9175 10.5448,10.7591 10.8695,10.7591 0.3246,0 10.5507,-11.23975 22.7246,-24.97722 24.0354,-27.122321 28.193,-30.745257 32.5852,-28.394606 1.5063,0.806105 2.7388,2.494536 2.739,3.752068 1e-4,1.257532 -7.5714,40.386418 -16.8257,86.953088 -15.4301,77.64279 -17.1023,84.92144 -20.1574,87.73779 -2.4568,2.26488 -4.5947,2.96494 -8.1437,2.66666 -6.5868,-0.5536 -8.1528,-4.18306 -8.2289,-19.07112 -0.097,-18.95692 -3.5189,-51.08582 -6.5789,-61.76849 -11.4971,-40.1362 -40.70178,-70.35152 -76.23093,-78.86884 -21.3959,-5.129185 -51.18192,-3.010951 -76.49566,5.44 C 789.4738,127.91172 735.66352,199.38868 714.67976,310 c -21.38308,112.71617 8.26879,181.41093 88.66091,205.40159 15.76018,4.70317 42.01673,5.92692 60.01337,2.79708 33.5482,-5.83447 70.57509,-25.67984 97.21207,-52.10295 21.82013,-21.64493 35.47298,-44.67971 48.26349,-81.42905 5.592,-16.06668 7.5696,-19.33334 11.7045,-19.33334 7.876,0 7.7224,7.29676 -0.6876,32.65339 -8.91,26.86459 -22.33275,48.99645 -43.01867,70.93084 -47.61035,50.48379 -109.13502,75.64368 -170.56971,69.75273 z m 639.38198,-0.1479 c -25.6601,-3.83344 -46.2333,-21.59594 -55.2608,-47.71098 -4.2856,-12.39742 -4.2525,-36.12821 0.072,-51.36509 8.8242,-31.09312 30.9756,-58.24489 60.3167,-73.93183 11.7733,-6.29457 20.9021,-9.15437 34.9548,-10.95044 18.5741,-2.37396 33.504,2.28523 46.6179,14.54812 l 6.6529,6.22116 10.1701,-11.02064 c 5.5935,-6.06136 10.62,-11.01136 11.17,-11 0.55,0.012 1,1.40836 1,3.10447 0,2.52605 -10.141,55.28359 -12.6705,65.91617 -0.5027,2.1132 -1.6915,3 -4.0216,3 -3.0983,0 -3.3096,-0.44365 -3.3343,-7 -0.1013,-26.88873 -8.5622,-44.42208 -25.5266,-52.8993 -6.86,-3.42802 -9.7658,-4.1007 -17.7131,-4.1007 -33.3913,0 -63.0348,23.58016 -76.6939,61.00692 -5.9044,16.17827 -9.3758,35.17402 -9.3574,51.20252 0.032,27.91431 8.7772,44.01963 29.0553,53.5089 21.5285,10.07442 48.2187,4.58137 69.1412,-14.22983 8.4571,-7.60357 14.3317,-16.61833 19.9887,-30.67263 2.675,-6.64598 5.2128,-10.99493 6.5825,-11.28029 1.9013,-0.39615 2.0887,0.28984 1.2741,4.66667 -4.6798,25.14824 -30.3298,51.97586 -57.8254,60.48034 -9.8315,3.0409 -24.0963,4.07448 -34.5922,2.50646 z m 143.9003,-3.17699 c -31.556,-7.07281 -45.4904,-40.98581 -31.0057,-75.46036 9.2053,-21.90935 30.0056,-41.03965 51.4653,-47.33349 11.3336,-3.32396 27.1897,-3.0123 37.0153,0.72758 16.4872,6.27542 28.6212,24.00962 29.9152,43.72188 1.7016,25.9198 -11.5233,51.1721 -35.035,66.89776 -16.4582,11.00782 -35.6206,15.1974 -52.3551,11.44663 z m 32.0984,-8.47172 c 18.3499,-8.97664 30.2285,-32.19043 34.5605,-67.54035 C 1659.6516,431.16295 1649.0116,416 1625.792,416 c -28.0301,0 -45.9984,24.72617 -51.3527,70.66667 -2.4954,21.41133 2.7484,35.61742 15.3096,41.47473 7.7943,3.63449 23.1138,3.02549 31.8899,-1.26772 z m 275.9456,9.30975 c -1.0455,-0.66308 -6.1887,-22.72591 -12.7892,-54.86339 -12.4633,-60.68164 -11.642,-58.65337 -23.7523,-58.65337 -5.5266,0 -6.5237,-0.35931 -5.8522,-2.10906 0.4452,-1.15997 0.8093,-2.95997 0.8093,-4 0,-1.57326 4.7772,-1.89094 28.4357,-1.89094 h 28.4358 l -0.564,3.84268 c -0.5171,3.52356 -1.1034,3.8945 -7.0582,4.46669 -7.9842,0.76719 -10.5818,2.77632 -10.5853,8.18721 0,5.28927 14.8661,80.84996 15.9003,80.7984 1.2034,-0.06 43.8534,-72.11664 45.4973,-76.86714 2.2747,-6.57382 -1.3993,-12.36538 -7.8709,-12.40743 -2.314,-0.0151 -2.9292,-0.57655 -2.3334,-2.12947 0.4452,-1.15997 0.8094,-2.95997 0.8094,-4 0,-1.55745 3.9568,-1.89094 22.4357,-1.89094 h 22.4357 l -0.587,4 c -0.5062,3.44858 -1.1515,4 -4.6815,4 -5.6779,0 -14.7301,4.6539 -19.4019,9.97474 -2.1538,2.45314 -16.8298,25.9738 -32.6133,52.26812 -25.1725,41.93596 -32.0897,52.48588 -34.3593,52.40339 -0.309,-0.0107 -1.3487,-0.51951 -2.3107,-1.12949 z m 134.7172,-0.28767 c -14.5621,-2.51884 -27.1448,-12.22988 -34.4172,-26.56243 -3.1135,-6.13605 -3.8136,-9.44382 -4.2881,-20.26004 -0.9359,-21.32901 5.6662,-38.39408 21.3338,-55.14269 15.3758,-16.43675 30.0862,-23.50571 49.0699,-23.58003 18.9096,-0.074 29.1335,5.49931 36.1193,19.68983 3.9448,8.01293 4.116,9.03604 3.6758,21.9684 -0.6783,19.92592 2.4841,18.65787 -46.5308,18.65787 -28.449,0 -40.0424,0.43493 -40.7176,1.52757 -0.5194,0.84016 -1.2339,8.56325 -1.588,17.16243 -0.5994,14.5522 -0.4155,16.13141 2.6565,22.80576 3.9195,8.51573 10.4011,15.1961 16.7897,17.30454 6.9486,2.2932 22.473,0.86298 29.4511,-2.71324 7.6036,-3.89672 17.6104,-13.31642 22.8948,-21.55158 2.6833,-4.18151 5.1367,-6.53548 6.8113,-6.53548 2.1039,0 2.4332,0.58872 1.6784,3 -2.4148,7.71368 -14.4714,21.0578 -24.7201,27.36002 -10.5344,6.47783 -25.2205,9.11739 -38.2188,6.86907 z m 53.5557,-75.33815 c 0.4452,-1.15997 0.8094,-7.39145 0.8094,-13.84774 0,-10.22015 -0.4743,-12.64415 -3.6667,-18.73804 -6.6759,-12.74371 -19.2967,-15.60838 -34.7483,-7.88714 -12.7049,6.34876 -23.4892,20.8134 -28.0193,37.58198 l -1.3508,5 h 33.0832 c 28.9376,0 33.1847,-0.26428 33.8925,-2.10906 z m 221.111,75.33815 c -14.5622,-2.51884 -27.1448,-12.22988 -34.4172,-26.56243 -3.1135,-6.13605 -3.8136,-9.44382 -4.2882,-20.26004 -0.9358,-21.32901 5.6663,-38.39408 21.3339,-55.14269 15.3757,-16.43675 30.0861,-23.50571 49.0699,-23.58003 18.9096,-0.074 29.1334,5.49931 36.1193,19.68983 3.9448,8.01293 4.116,9.03604 3.6757,21.9684 -0.6782,19.92592 2.4842,18.65787 -46.5308,18.65787 -28.4489,0 -40.0424,0.43493 -40.7176,1.52757 -0.5193,0.84016 -1.2338,8.56325 -1.588,17.16243 -0.5993,14.5522 -0.4154,16.13141 2.6566,22.80576 3.9194,8.51573 10.401,15.1961 16.7897,17.30454 6.9485,2.2932 22.4729,0.86298 29.4511,-2.71324 7.6036,-3.89672 17.6104,-13.31642 22.8948,-21.55158 2.6833,-4.18151 5.1366,-6.53548 6.8113,-6.53548 2.1039,0 2.4332,0.58872 1.6784,3 -2.4148,7.71368 -14.4715,21.0578 -24.7201,27.36002 -10.5344,6.47783 -25.2206,9.11739 -38.2188,6.86907 z m 53.5557,-75.33815 c 0.4452,-1.15997 0.8093,-7.39145 0.8093,-13.84774 0,-10.22015 -0.4742,-12.64415 -3.6666,-18.73804 -6.6759,-12.74371 -19.2967,-15.60838 -34.7483,-7.88714 -12.7049,6.34876 -23.4892,20.8134 -28.0193,37.58198 l -1.3508,5 h 33.0832 c 28.9376,0 33.1846,-0.26428 33.8925,-2.10906 z m -680.83,70.25612 c 0.5472,-3.72801 0.8481,-3.87093 9.282,-4.40796 13.4653,-0.85741 13.1019,-0.0833 22.7888,-48.53938 4.53,-22.65986 8.2361,-43.4157 8.2357,-46.12412 -6e-4,-6.35622 -3.693,-9.0756 -12.3226,-9.0756 -6.3011,0 -6.3824,-0.054 -5.5158,-3.66667 0.4839,-2.01667 1.0607,-3.88207 1.2819,-4.14532 0.3783,-0.45016 37.8893,-3.83581 37.8893,-3.4198 0,0.10653 -1.2508,6.32656 -2.7794,13.82216 -1.5288,7.49559 -2.5298,13.87815 -2.2246,14.18344 0.3054,0.30531 2.4767,-2.12053 4.8251,-5.39075 5.6443,-7.85936 13.9056,-14.48782 23.6055,-18.93949 14.5877,-6.695 35.8185,-4.26523 44.0554,5.04197 7.7934,8.80595 7.5951,16.71312 -1.5762,62.87039 l -7.4275,37.38153 2.6816,2.68167 c 1.8317,1.83179 5.0552,2.87849 10.1711,3.30275 5.8489,0.48504 7.3265,1.04548 6.7458,2.55865 -0.4089,1.06565 -0.7434,2.78849 -0.7434,3.82852 0,1.57756 -5.0823,1.89095 -30.6667,1.89095 -28.3252,0 -30.6651,-0.17815 -30.6463,-2.33334 0.037,-4.26404 1.9059,-5.31752 10.5142,-5.92766 13.1362,-0.93111 12.9844,-0.61763 21.8974,-45.20655 4.1631,-20.82619 7.569,-41.37321 7.5687,-45.66007 -8e-4,-9.10754 -2.7245,-14.68694 -8.2968,-16.99505 -6.1432,-2.5446 -19.6387,-0.80493 -27.6715,3.56705 -8.7256,4.7491 -19.4725,16.3837 -23.7566,25.71898 -3.6768,8.01165 -16.7606,69.87526 -15.571,73.62334 0.9435,2.97267 7.3775,5.2133 14.9702,5.2133 4.8721,0 5.7977,0.38025 5.1344,2.10905 -0.4452,1.15997 -0.8094,2.95997 -0.8094,4 0,1.57833 -5.1418,1.89095 -31.1024,1.89095 h -31.1024 z m 424,0 c 0.5472,-3.72801 0.8481,-3.87093 9.282,-4.40796 13.4653,-0.85741 13.1019,-0.0833 22.7888,-48.53938 4.53,-22.65986 8.2361,-43.4157 8.2357,-46.12412 -6e-4,-6.35622 -3.693,-9.0756 -12.3226,-9.0756 -6.3011,0 -6.3824,-0.054 -5.5158,-3.66667 0.4839,-2.01667 1.0607,-3.88207 1.2819,-4.14532 0.3783,-0.45016 37.8893,-3.83581 37.8893,-3.4198 0,0.10653 -1.2508,6.32656 -2.7794,13.82216 -1.5288,7.49559 -2.5298,13.87815 -2.2246,14.18344 0.3054,0.30531 2.4767,-2.12053 4.8251,-5.39075 5.6443,-7.85936 13.9056,-14.48782 23.6055,-18.93949 14.5877,-6.695 35.8185,-4.26523 44.0554,5.04197 7.7934,8.80595 7.5951,16.71312 -1.5762,62.87039 l -7.4275,37.38153 2.6816,2.68167 c 1.8317,1.83179 5.0552,2.87849 10.1711,3.30275 5.8489,0.48504 7.3265,1.04548 6.7458,2.55865 -0.4089,1.06565 -0.7434,2.78849 -0.7434,3.82852 0,1.57756 -5.0823,1.89095 -30.6667,1.89095 -28.3252,0 -30.6651,-0.17815 -30.6463,-2.33334 0.037,-4.26404 1.9059,-5.31752 10.5142,-5.92766 13.1362,-0.93111 12.9844,-0.61763 21.8974,-45.20655 4.1631,-20.82619 7.569,-41.37321 7.5687,-45.66007 -8e-4,-9.10754 -2.7245,-14.68694 -8.2968,-16.99505 -6.1432,-2.5446 -19.6387,-0.80493 -27.6715,3.56705 -8.7256,4.7491 -19.4725,16.3837 -23.7566,25.71898 -3.6768,8.01165 -16.7606,69.87526 -15.571,73.62334 0.9435,2.97267 7.3775,5.2133 14.9702,5.2133 4.8721,0 5.7977,0.38025 5.1344,2.10905 -0.4452,1.15997 -0.8094,2.95997 -0.8094,4 0,1.57833 -5.1418,1.89095 -31.1024,1.89095 h -31.1024 z M 1509.6401,255.85572 c -25.6601,-3.83344 -46.2333,-21.59593 -55.2608,-47.71097 -4.2856,-12.39743 -4.2525,-36.12822 0.072,-51.3651 8.8242,-31.09311 30.9756,-58.244885 60.3167,-73.931826 11.7733,-6.294571 20.9021,-9.154371 34.9548,-10.950444 18.5741,-2.373953 33.504,2.285232 46.6179,14.548132 l 6.6529,6.221155 10.1701,-11.020646 c 5.5935,-6.061356 10.62,-11.011356 11.17,-11 0.55,0.01133 1,1.408364 1,3.104466 0,2.526062 -10.141,55.283593 -12.6705,65.916183 -0.5027,2.1132 -1.6915,3 -4.0216,3 -3.0983,0 -3.3096,-0.44366 -3.3343,-7 -0.1013,-26.88874 -8.5622,-44.422079 -25.5266,-52.899315 -6.8604,-3.42801 -9.7662,-4.100688 -17.7135,-4.100688 -33.3913,0 -63.0348,23.580153 -76.6939,61.006923 -5.9044,16.17826 -9.3758,35.17401 -9.3574,51.20252 0.032,27.9143 8.7772,44.01962 29.0553,53.50889 21.5285,10.07443 48.2187,4.58137 69.1412,-14.22983 8.4571,-7.60357 14.3317,-16.61833 19.9887,-30.67262 2.675,-6.64599 5.2128,-10.99494 6.5825,-11.2803 1.9013,-0.39614 2.0887,0.28984 1.2741,4.66667 -4.6798,25.14824 -30.3298,51.97587 -57.8254,60.48035 -9.8315,3.04089 -24.0963,4.07448 -34.5922,2.50645 z m 128.5304,-2.59197 c -8.5724,-1.43742 -20.7041,-7.65723 -24.1109,-12.36152 -3.9052,-5.3923 -3.7207,-16.88276 0.4055,-25.26208 9.4446,-19.17963 34.2913,-31.57156 71.3685,-35.59398 7.2417,-0.78565 13.6067,-1.70026 14.1443,-2.03246 1.9069,-1.17856 4.0289,-19.89731 2.83,-24.96439 -1.5782,-6.66951 -5.3459,-12.84509 -9.9102,-16.24328 -5.6353,-4.19571 -25.4165,-3.99817 -35.136,0.35087 -3.7977,1.69932 -7.9098,4.20016 -9.1381,5.55741 -2.1209,2.34348 -1.9979,2.56612 2.4431,4.42165 7.6153,3.18191 8.1886,12.00871 1.2018,18.50488 -4.529,4.21112 -9.4526,5.40391 -14.7226,3.56678 -7.13,-2.48551 -7.2106,-10.62495 -0.2143,-21.65686 7.5107,-11.84297 24.5792,-19.83149 42.6684,-19.96989 17.8976,-0.13692 29.9779,5.569 36.9687,17.46165 5.2033,8.85166 4.6862,17.72283 -3.3575,57.59467 -7.7959,38.64367 -7.5487,42.61783 2.6543,42.67572 5.5894,0.0317 10.0952,-7.06533 13.4793,-21.23128 2.5183,-10.542 3.2485,-12.08164 5.7301,-12.08164 2.8239,0 2.83,0.0691 0.8642,9.66667 -3.5512,17.33757 -11.2443,27.5118 -22.9206,30.31289 -11.581,2.77827 -19.7133,-3.10747 -21.0829,-15.25888 l -0.6659,-5.90752 -6.3797,6.98044 c -7.2461,7.92833 -17.2999,13.53988 -27.8053,15.51963 -8.0326,1.51372 -10.022,1.50862 -19.3142,-0.0495 z m 32.8675,-9.68687 c 9.8004,-5.74337 17.9088,-15.84772 20.9152,-26.06353 3.4769,-11.81435 7.2996,-32.03835 6.2536,-33.08438 -1.4812,-1.48117 -23.5083,2.27018 -32.5049,5.53575 -17.9338,6.50963 -29.1616,17.37872 -32.941,31.88835 -2.8385,10.89789 0.4386,19.6896 8.9706,24.06624 6.5848,3.37781 21.5925,2.17826 29.3065,-2.34243 z m 227.9303,9.65221 c -14.5622,-2.51884 -27.1448,-12.22988 -34.4172,-26.56242 -3.1135,-6.13606 -3.8136,-9.44383 -4.2882,-20.26004 -0.9358,-21.32902 5.6663,-38.39408 21.3339,-55.1427 15.3757,-16.43674 30.0861,-23.5057 49.0699,-23.58003 18.9096,-0.074 29.1334,5.49931 36.1193,19.68983 3.9448,8.01294 4.116,9.03604 3.6757,21.9684 -0.6782,19.92592 2.4842,18.65787 -46.5308,18.65787 -28.4489,0 -40.0424,0.43493 -40.7176,1.52757 -0.5193,0.84016 -1.2338,8.56326 -1.588,17.16243 -0.5993,14.5522 -0.4154,16.13141 2.6566,22.80576 3.9194,8.51573 10.401,15.19611 16.7897,17.30455 6.9485,2.2932 22.4729,0.86297 29.4511,-2.71324 7.6036,-3.89672 17.6104,-13.31643 22.8948,-21.55159 2.6833,-4.18151 5.1366,-6.53548 6.8113,-6.53548 2.1039,0 2.4332,0.58872 1.6784,3 -2.4148,7.71368 -14.4715,21.0578 -24.7201,27.36003 -10.5344,6.47782 -25.2206,9.11738 -38.2188,6.86906 z m 53.5557,-75.33814 c 0.4452,-1.15998 0.8093,-7.39146 0.8093,-13.84775 0,-10.22015 -0.4742,-12.64415 -3.6666,-18.73804 -6.6759,-12.74371 -19.2967,-15.60837 -34.7483,-7.88713 -12.7049,6.34876 -23.4892,20.8134 -28.0193,37.58197 l -1.3508,5 h 33.0832 c 28.9376,0 33.1846,-0.26428 33.8925,-2.10905 z m -206.9459,70.44238 c 0.4056,-3.52488 0.7744,-3.69244 9.5387,-4.33333 14.1347,-1.03361 13.4935,0.37364 24.0572,-52.79979 4.9388,-24.86012 9.2856,-46.25021 9.6593,-47.53354 0.6104,-2.09527 -0.5016,-2.33334 -10.8989,-2.33334 -11.3569,0 -11.5633,-0.0575 -10.7748,-3 0.4423,-1.65 0.8121,-3.72664 0.8221,-4.61476 0.013,-1.10917 3.6526,-1.73537 11.6255,-1.99999 l 11.6072,-0.38525 3.724,-18.66666 c 4.718,-23.649414 8.7897,-32.278794 20.3209,-43.065599 10.416,-9.743722 20.057,-13.86595 32.7407,-13.99924 14.2051,-0.149278 21.7224,5.65154 21.5707,16.645109 -0.099,7.154885 -3.7411,12.060476 -10.1623,13.686752 -7.5949,1.923559 -11.9523,-0.994696 -12.4877,-8.363516 -0.36,-4.953909 0.1673,-6.258197 4.1338,-10.224756 5.1372,-5.13714 4.4128,-6.012087 -4.9774,-6.012087 -9.7003,0 -18.9743,7.828818 -26.1191,22.049015 -3.3184,6.604653 -11.958,40.802622 -11.958,47.333392 0,0.75135 6.5695,1.28426 15.8316,1.28426 h 15.8316 l -0.8841,4.33333 -0.884,4.33334 -15.426,0.37401 -15.4259,0.37403 -9.6273,48.14981 -9.6275,48.14983 2.6699,2.66982 c 2.034,2.03396 5.0153,2.82035 12.5181,3.30186 l 9.8484,0.63202 -0.5637,3.84098 -0.5638,3.84097 h -33.2705 -33.2705 z m 167.7408,-145.0174 c -1.3573,-1.63538 1.8723,-5.634174 19.3783,-23.993667 23.7664,-24.925003 27.9108,-27.2958 33.1625,-18.97018 2.9491,4.675317 -0.7804,9.315152 -16.5526,20.593517 -34.5146,24.68032 -34.222,24.49845 -35.9882,22.37033 z"
       id="path246" />
  </g>
</svg>
